<svg width="140" height="40" fill="none" version="1.1" viewBox="0 0 140 40" xmlns="http://www.w3.org/2000/svg">
 <g clip-path="url(#clip0_5561_14950)">
  <g fill="#0067b9">
   <path d="m0.11133 15.714v-15.686h15.486v15.686zm3.1879-13.245v11.255l9.7096-5.7529z"/>
   <path d="m38.375 15.714h-5.9826v-15.649h6.0196c4.4587 0 7.1347 3.5569 7.1347 8.0863s-2.3782 7.5627-7.1717 7.5627zm-0.2589-12.99h-2.4522v10.557h2.6391c3.4934 0 4.013-2.9941 3.9761-5.2784 0-1.798-0.8544-5.2784-4.161-5.2784z"/>
   <path d="m29.431 15.714-1.1891-3.4823h-5.7219l-1.0412 3.4823h-3.1217l5.2392-15.686h3.1587l5.8717 15.686zm-2.2771-6.6627-1.9578-5.7274-1.7166 5.7274-0.1401 0.97252h3.9566l-0.1401-0.97252z"/>
   <path d="m49.699 0.027451h-3.3066v15.686h3.3066z"/>
  </g>
  <g fill="#101820">
   <path d="m54.23 15.51 1.8392-15.173c0.0292-0.14902 0.1109-0.22353 0.2433-0.22353h4.3634c1.2105 0 2.1622 0.32745 2.857 0.98236 0.6928 0.6549 1.0412 1.5392 1.0412 2.6549 0 0.13333-0.0156 0.3647-0.0448 0.69216l-0.8407 6.9628c-0.1635 1.3098-0.6909 2.3588-1.5842 3.147-0.8933 0.7883-2.0046 1.1824-3.3339 1.1824h-4.3633c-0.148 0-0.2063-0.0745-0.1772-0.2235zm2.3472-1.6294 2.458-0.0216c0.6929 0 1.2767-0.2412 1.7496-0.7255 0.473-0.4823 0.761-1.1333 0.8642-1.9529l0.7979-6.5157c0.0136-0.1196 0.0214-0.29019 0.0214-0.51372 0-0.66863-0.1771-1.202-0.5313-1.5961s-0.8408-0.59216-1.4616-0.59216h-2.4581c-0.0583 0-0.0895 0.02942-0.0895 0.0902l-1.4402 11.737c0 0.0588 0.0292 0.0902 0.0896 0.0902z"/>
   <path d="m76.259 15.553-1.771-10.933v-0.0451c0-0.13333 0.0739-0.2 0.2219-0.2h1.8158c0.1323 0 0.1985 0.06667 0.1985 0.2l0.9964 8.0098c0.0156 0.0294 0.0292 0.0451 0.0448 0.0451s0.0292-0.0157 0.0447-0.0451l2.9466-8.0098c0.0292-0.13333 0.1109-0.2 0.2433-0.2l1.8158 0.02157c0.0739 0 0.1245 0.02157 0.1557 0.06667 0.0292 0.0451 0.0292 0.10392 0 0.17843l-4.4082 10.912c-0.0447 0.1197-0.1265 0.1785-0.2433 0.1785h-1.8605c-0.1032 0-0.1693-0.0588-0.1985-0.1785z"/>
   <path d="m96.624 15.008c-0.6422-0.6019-0.9789-1.4235-1.0081-2.4647-0.0156-0.6255 0.0292-1.4568 0.1323-2.5 0.1188-0.98232 0.2803-1.8078 0.4866-2.4764 0.2666-1.0255 0.794-1.8451 1.5842-2.4549s1.7457-0.91568 2.8686-0.91568c1.123 0 1.979 0.30588 2.614 0.91568 0.634 0.60981 0.967 1.4216 0.996 2.4314 0.029 0.52157-0.015 1.353-0.132 2.5-0.132 1.0569-0.296 1.8902-0.487 2.5-0.266 1.0412-0.794 1.8628-1.584 2.4647-0.79 0.602-1.738 0.904-2.8451 0.904-1.1074 0-1.9832-0.302-2.6235-0.904zm4.2526-1.4627c0.405-0.3431 0.689-0.7961 0.852-1.3608 0.133-0.6098 0.259-1.3235 0.376-2.1412 0.089-0.80389 0.132-1.5098 0.132-2.1196-0.015-0.56471-0.181-1.0196-0.498-1.3608-0.317-0.34117-0.749-0.51372-1.296-0.51372s-1.0199 0.17058-1.417 0.51372c-0.3989 0.34314-0.6792 0.79608-0.8407 1.3608-0.1187 0.53529-0.2297 1.2412-0.3328 2.1196-0.1187 0.8785-0.1771 1.5922-0.1771 2.1412 0.0156 0.5647 0.181 1.0196 0.4982 1.3608 0.3172 0.3431 0.7493 0.5137 1.2962 0.5137 0.5472 0 1.0002-0.1706 1.4072-0.5137z"/>
   <path d="m131.08 4.5314c0.103 0.0451 0.124 0.13333 0.066 0.26863l-0.531 1.6961c-0.045 0.14902-0.133 0.19412-0.267 0.13334-0.222-0.07451-0.457-0.11177-0.708-0.11177-0.178 0-0.31 0.00785-0.399 0.02157-0.577 0.0451-1.079 0.30981-1.507 0.79216-0.428 0.48431-0.679 1.0608-0.753 1.7294l-0.798 6.449c-0.029 0.149-0.111 0.2235-0.243 0.2235h-1.639c-0.058 0-0.107-0.0215-0.144-0.0666s-0.049-0.0961-0.033-0.1569l1.329-10.912c0.029-0.14902 0.111-0.22353 0.244-0.22353h1.638c0.059 0 0.107 0.02157 0.144 0.06666 0.037 0.0451 0.049 0.09608 0.033 0.15687l-0.177 1.4274c0 0.0451 0.012 0.07058 0.033 0.07843 0.022 0.00784 0.041-0.00392 0.055-0.03334 0.663-1.2059 1.528-1.8078 2.59-1.8078 0.428 0 0.783 0.0902 1.063 0.26863z"/>
   <path d="m132.2 4.4784v-0.13138c0-0.04509 0.025-0.06862 0.076-0.06862h1.73c0.051 0 0.074 0.02353 0.074 0.06862v0.13138c0 0.04509-0.025 0.06863-0.074 0.06863h-0.689c-0.019 0-0.029 0.0098-0.029 0.02745v1.849c0 0.04509-0.025 0.06862-0.074 0.06862h-0.179c-0.051 0-0.074-0.02353-0.074-0.06862v-1.849c0-0.01765-0.01-0.02745-0.029-0.02745h-0.652c-0.051 0-0.076-0.02354-0.076-0.06863zm3.949-0.2h0.187c0.05 0 0.076 0.02353 0.076 0.06862v2.0765c0 0.04509-0.026 0.06862-0.076 0.06862h-0.179c-0.051 0-0.074-0.02353-0.074-0.06862v-1.5882c0-0.01372-6e-3 -0.02353-0.016-0.02745s-0.017 0-0.023 0.01372l-0.518 0.71373c-0.019 0.02745-0.05 0.04118-0.089 0.04118h-0.037c-0.041 0-0.07-0.01373-0.09-0.04118l-0.518-0.71373c-5e-3 -0.01372-0.011-0.01764-0.023-0.01372-0.01 0.00392-0.015 0.01373-0.015 0.02745v1.5882c0 0.04509-0.026 0.06862-0.074 0.06862h-0.187c-0.051 0-0.074-0.02353-0.074-0.06862v-2.0765c0-0.04509 0.025-0.06862 0.074-0.06862h0.194c0.035 0 0.065 0.01372 0.09 0.04117l0.615 0.85883s0.012 0.00784 0.023 0.00784c0.012 0 0.018-0.00196 0.024-0.00784l0.622-0.85883c0.026-0.02745 0.055-0.04117 0.09-0.04117z"/>
   <path d="m113.77 7.4765c-0.119-1.1157-0.417-1.9412-0.897-2.4765-0.481-0.5353-1.162-0.80392-2.05-0.80392-1.078 0-1.934 0.38627-2.569 1.1608-0.058 0.05882-0.089 0.0451-0.089-0.0451l0.089-0.71372c0.014-0.05883 4e-3 -0.11177-0.033-0.15687-0.037-0.04509-0.085-0.06666-0.144-0.06666h-1.638c-0.133 0-0.214 0.07451-0.244 0.22353l-1.856 15.071c-0.026 0.2157 0.126 0.3588 0.338 0.3177l1.353-0.2628c0.212-0.0412 0.407-0.251 0.434-0.4666l0.553-4.4608c0-0.0451 0.013-0.0706 0.044-0.0785 0.03-0.0078 0.053 0.0118 0.067 0.0549 0.206 0.3863 0.482 0.6726 0.831 0.8589 0.346 0.1862 0.794 0.2784 1.339 0.2784 0.959 0 1.761-0.2784 2.403-0.8373 0.642-0.5568 1.141-1.3941 1.495-2.5098 0.222-0.7137 0.399-1.5627 0.531-2.5431 0.059-0.68431 0.09-1.2059 0.09-1.5627 0-0.43137-0.016-0.75882-0.045-0.98235zm-7.575-2.8784-1.856 15.071c-0.026 0.2157 0.126 0.3588 0.338 0.3177l1.353-0.2628c0.212-0.0412 0.407-0.251 0.434-0.4666l0.553-4.4608m4.604-4.7314c-0.118 1.0863-0.332 1.949-0.642 2.5882-0.457 0.9373-1.099 1.4059-1.927 1.4059-0.428 0-0.761-0.1235-0.996-0.3686-0.236-0.2451-0.399-0.6059-0.487-1.0824-0.044-0.298-0.066-0.6098-0.066-0.9372 0-0.4314 0.037-0.9667 0.111-1.6059 0.119-1.0412 0.302-1.8745 0.553-2.5 0.428-1.0118 1.055-1.5176 1.882-1.5176 0.473 0 0.837 0.13138 1.096 0.3902 0.258 0.26079 0.432 0.64314 0.519 1.149 0.045 0.26863 0.066 0.56471 0.066 0.89216 0 0.43137-0.037 0.95882-0.111 1.5843z"/>
   <path d="m72.612 5.1667c-0.6422-0.64706-1.5316-0.97058-2.6682-0.97058s-2.0377 0.31568-2.8356 0.94901c-0.798 0.63334-1.3215 1.4686-1.5726 2.5098-0.1634 0.6549-0.2958 1.451-0.3989 2.3882-0.1032 0.8628-0.1557 1.5393-0.1557 2.0314 0 0.2686 0.0078 0.4608 0.0214 0.5804 0.0584 1.0118 0.3951 1.8078 1.0081 2.3882 0.6131 0.5804 1.4791 0.8706 2.6021 0.8706 1.1229 0 2.0376-0.3157 2.8356-0.949 1.2144-0.9588 1.5005-2.2451 1.5005-2.2451 0.0331-0.1196-0.0117-0.198-0.1304-0.198h-1.6504c-0.1167 0-0.2627 0.0745-0.3094 0.1941 0 0-0.1557 0.4314-0.6189 0.8451-0.3795 0.3372-0.8544 0.4961-1.4052 0.5019-0.5507-0.0039-0.9906-0.1745-1.3195-0.5117-0.3328-0.3432-0.4982-0.7883-0.4982-1.3392-0.0156-0.1942 0.0078-0.5569 0.0662-1.0942 0-0.0588 0.0292-0.0902 0.0895-0.0902h5.8911c0.148 0 0.2277-0.0745 0.2433-0.2235 0.1771-1.3078 0.2666-2.3274 0.2666-3.0568 0-1.0706-0.3211-1.9294-0.9633-2.5765zm-1.1852 4.051c0 0.05883-0.0292 0.0902-0.0895 0.0902h-3.9644c-0.0448 0-0.0662-0.02941-0.0662-0.0902 0.0895-0.58039 0.1615-1.0196 0.2218-1.3157 0.1324-0.56471 0.3951-1.0157 0.7863-1.349 0.3912-0.3353 0.868-0.50196 1.4285-0.50196s0.979 0.17451 1.2962 0.52353 0.4768 0.8 0.4768 1.349c-0.0292 0.62549-0.0584 1.0569-0.0895 1.2941z"/>
   <path d="m90.293 5.1667c-0.6423-0.64706-1.5317-0.97058-2.6683-0.97058s-2.0377 0.31568-2.8356 0.94901c-0.7979 0.63334-1.3215 1.4686-1.5725 2.5098-0.1635 0.6549-0.2958 1.451-0.399 2.3882-0.1031 0.8628-0.1557 1.5393-0.1557 2.0314 0 0.2686 0.0078 0.4608 0.0214 0.5804 0.0584 1.0118 0.3951 1.8078 1.0082 2.3882 0.613 0.5804 1.4791 0.8706 2.602 0.8706 1.123 0 2.0377-0.3157 2.8356-0.949 1.2145-0.9588 1.5006-2.2451 1.5006-2.2451 0.033-0.1196-0.0117-0.198-0.1304-0.198h-1.6504c-0.1168 0-0.2628 0.0745-0.3095 0.1941 0 0-0.1557 0.4314-0.6189 0.8451-0.3795 0.3372-0.8543 0.4961-1.4051 0.5019-0.5508-0.0039-0.9906-0.1745-1.3195-0.5117-0.3328-0.3432-0.4983-0.7883-0.4983-1.3392-0.0155-0.1942 0.0078-0.5569 0.0662-1.0942 0-0.0588 0.0292-0.0902 0.0895-0.0902h5.8912c0.1479 0 0.2277-0.0745 0.2433-0.2235 0.1771-1.3078 0.2666-2.3274 0.2666-3.0568 0-1.0706-0.3211-1.9294-0.9634-2.5765zm-1.1853 4.051c0 0.05883-0.0292 0.0902-0.0895 0.0902h-3.9644c-0.0448 0-0.0662-0.02941-0.0662-0.0902 0.0895-0.58039 0.1616-1.0196 0.2219-1.3157 0.1323-0.56471 0.3951-1.0157 0.7863-1.349 0.3911-0.3353 0.868-0.50196 1.4285-0.50196s0.9789 0.17451 1.2961 0.52353c0.3173 0.34902 0.4769 0.8 0.4769 1.349-0.0292 0.62549-0.0584 1.0569-0.0896 1.2941z"/>
   <path d="m122.49 5.1667c-0.642-0.64706-1.531-0.97058-2.668-0.97058-1.136 0-2.037 0.31568-2.835 0.94901-0.798 0.63334-1.322 1.4686-1.573 2.5098-0.163 0.6549-0.296 1.451-0.399 2.3882-0.103 0.8628-0.156 1.5393-0.156 2.0314 0 0.2686 8e-3 0.4608 0.022 0.5804 0.058 1.0118 0.395 1.8078 1.008 2.3882s1.479 0.8706 2.602 0.8706 2.038-0.3157 2.836-0.949c1.214-0.9588 1.5-2.2451 1.5-2.2451 0.033-0.1196-0.012-0.198-0.13-0.198h-1.651c-0.116 0-0.262 0.0745-0.309 0.1941 0 0-0.156 0.4314-0.619 0.8451-0.379 0.3372-0.854 0.4961-1.405 0.5019-0.551-0.0039-0.991-0.1745-1.32-0.5117-0.332-0.3432-0.498-0.7883-0.498-1.3392-0.015-0.1942 8e-3 -0.5569 0.066-1.0942 0-0.0588 0.029-0.0902 0.09-0.0902h5.891c0.148 0 0.228-0.0745 0.243-0.2235 0.177-1.3078 0.267-2.3274 0.267-3.0568 0-1.0706-0.321-1.9294-0.964-2.5765zm-1.185 4.051c0 0.05883-0.029 0.0902-0.089 0.0902h-3.965c-0.045 0-0.066-0.02941-0.066-0.0902 0.09-0.58039 0.162-1.0196 0.222-1.3157 0.132-0.56471 0.395-1.0157 0.786-1.349 0.391-0.3353 0.868-0.50196 1.429-0.50196 0.56 0 0.979 0.17451 1.296 0.52353s0.477 0.8 0.477 1.349c-0.029 0.62549-0.059 1.0569-0.09 1.2941z"/>
   <path d="m93.495 1.0961c0.0272-0.21569 0.2218-0.42549 0.434-0.46667l1.3526-0.26274c0.2121-0.041176 0.3639 0.10196 0.3386 0.31765l-1.8294 15.004c-0.0292 0.1491-0.1109 0.2236-0.2433 0.2236h-1.6173c-0.0739 0-0.1304-0.0216-0.1654-0.0667-0.037-0.0451-0.0486-0.0961-0.0331-0.1569l1.7633-14.59z"/>
  </g>
 </g>
 <defs>
  <clipPath id="clip0_5561_14950">
   <rect width="136.43" height="20" fill="#fff"/>
  </clipPath>
  <clipPath id="clip0_5561_14950-0">
   <rect width="136.43" height="20" fill="#fff"/>
  </clipPath>
 </defs>
 <g transform="translate(-.11133 19.973)" clip-path="url(#clip0_5561_14950-0)">
  <g fill="#0067b9">
   <path d="m0.11133 15.714v-15.686h15.486v15.686zm3.1879-13.245v11.255l9.7096-5.7529z"/>
   <path d="m38.375 15.714h-5.9826v-15.649h6.0196c4.4587 0 7.1347 3.5569 7.1347 8.0863s-2.3782 7.5627-7.1717 7.5627zm-0.2589-12.99h-2.4522v10.557h2.6391c3.4934 0 4.013-2.9941 3.9761-5.2784 0-1.798-0.8544-5.2784-4.161-5.2784z"/>
   <path d="m29.431 15.714-1.1891-3.4823h-5.7219l-1.0412 3.4823h-3.1217l5.2392-15.686h3.1587l5.8717 15.686zm-2.2771-6.6627-1.9578-5.7274-1.7166 5.7274-0.1401 0.97252h3.9566l-0.1401-0.97252z"/>
   <path d="m49.699 0.027451h-3.3066v15.686h3.3066z"/>
  </g>
  <g fill="#fff">
   <path d="m54.23 15.51 1.8392-15.173c0.0292-0.14902 0.1109-0.22353 0.2433-0.22353h4.3634c1.2105 0 2.1622 0.32745 2.857 0.98236 0.6928 0.6549 1.0412 1.5392 1.0412 2.6549 0 0.13333-0.0156 0.3647-0.0448 0.69216l-0.8407 6.9628c-0.1635 1.3098-0.6909 2.3588-1.5842 3.147-0.8933 0.7883-2.0046 1.1824-3.3339 1.1824h-4.3633c-0.148 0-0.2063-0.0745-0.1772-0.2235zm2.3472-1.6294 2.458-0.0216c0.6929 0 1.2767-0.2412 1.7496-0.7255 0.473-0.4823 0.761-1.1333 0.8642-1.9529l0.7979-6.5157c0.0136-0.1196 0.0214-0.29019 0.0214-0.51372 0-0.66863-0.1771-1.202-0.5313-1.5961s-0.8408-0.59216-1.4616-0.59216h-2.4581c-0.0583 0-0.0895 0.02942-0.0895 0.0902l-1.4402 11.737c0 0.0588 0.0292 0.0902 0.0896 0.0902z"/>
   <path d="m76.259 15.553-1.771-10.933v-0.0451c0-0.13333 0.0739-0.2 0.2219-0.2h1.8158c0.1323 0 0.1985 0.06667 0.1985 0.2l0.9964 8.0098c0.0156 0.0294 0.0292 0.0451 0.0448 0.0451s0.0292-0.0157 0.0447-0.0451l2.9466-8.0098c0.0292-0.13333 0.1109-0.2 0.2433-0.2l1.8158 0.02157c0.0739 0 0.1245 0.02157 0.1557 0.06667 0.0292 0.0451 0.0292 0.10392 0 0.17843l-4.4082 10.912c-0.0447 0.1197-0.1265 0.1785-0.2433 0.1785h-1.8605c-0.1032 0-0.1693-0.0588-0.1985-0.1785z"/>
   <path d="m96.624 15.008c-0.6422-0.6019-0.9789-1.4235-1.0081-2.4647-0.0156-0.6255 0.0292-1.4568 0.1323-2.5 0.1188-0.98232 0.2803-1.8078 0.4866-2.4764 0.2666-1.0255 0.794-1.8451 1.5842-2.4549s1.7457-0.91568 2.8686-0.91568c1.123 0 1.979 0.30588 2.614 0.91568 0.634 0.60981 0.967 1.4216 0.996 2.4314 0.029 0.52157-0.015 1.353-0.132 2.5-0.132 1.0569-0.296 1.8902-0.487 2.5-0.266 1.0412-0.794 1.8628-1.584 2.4647-0.79 0.602-1.738 0.904-2.8451 0.904-1.1074 0-1.9832-0.302-2.6235-0.904zm4.2526-1.4627c0.405-0.3431 0.689-0.7961 0.852-1.3608 0.133-0.6098 0.259-1.3235 0.376-2.1412 0.089-0.80389 0.132-1.5098 0.132-2.1196-0.015-0.56471-0.181-1.0196-0.498-1.3608-0.317-0.34117-0.749-0.51372-1.296-0.51372s-1.0199 0.17058-1.417 0.51372c-0.3989 0.34314-0.6792 0.79608-0.8407 1.3608-0.1187 0.53529-0.2297 1.2412-0.3328 2.1196-0.1187 0.8785-0.1771 1.5922-0.1771 2.1412 0.0156 0.5647 0.181 1.0196 0.4982 1.3608 0.3172 0.3431 0.7493 0.5137 1.2962 0.5137 0.5472 0 1.0002-0.1706 1.4072-0.5137z"/>
   <path d="m131.08 4.5314c0.103 0.0451 0.124 0.13333 0.066 0.26863l-0.531 1.6961c-0.045 0.14902-0.133 0.19412-0.267 0.13334-0.222-0.07451-0.457-0.11177-0.708-0.11177-0.178 0-0.31 0.00785-0.399 0.02157-0.577 0.0451-1.079 0.30981-1.507 0.79216-0.428 0.48431-0.679 1.0608-0.753 1.7294l-0.798 6.449c-0.029 0.149-0.111 0.2235-0.243 0.2235h-1.639c-0.058 0-0.107-0.0215-0.144-0.0666s-0.049-0.0961-0.033-0.1569l1.329-10.912c0.029-0.14902 0.111-0.22353 0.244-0.22353h1.638c0.059 0 0.107 0.02157 0.144 0.06666 0.037 0.0451 0.049 0.09608 0.033 0.15687l-0.177 1.4274c0 0.0451 0.012 0.07058 0.033 0.07843 0.022 0.00784 0.041-0.00392 0.055-0.03334 0.663-1.2059 1.528-1.8078 2.59-1.8078 0.428 0 0.783 0.0902 1.063 0.26863z"/>
   <path d="m132.2 4.4784v-0.13138c0-0.04509 0.025-0.06862 0.076-0.06862h1.73c0.051 0 0.074 0.02353 0.074 0.06862v0.13138c0 0.04509-0.025 0.06863-0.074 0.06863h-0.689c-0.019 0-0.029 0.0098-0.029 0.02745v1.849c0 0.04509-0.025 0.06862-0.074 0.06862h-0.179c-0.051 0-0.074-0.02353-0.074-0.06862v-1.849c0-0.01765-0.01-0.02745-0.029-0.02745h-0.652c-0.051 0-0.076-0.02354-0.076-0.06863zm3.949-0.2h0.187c0.05 0 0.076 0.02353 0.076 0.06862v2.0765c0 0.04509-0.026 0.06862-0.076 0.06862h-0.179c-0.051 0-0.074-0.02353-0.074-0.06862v-1.5882c0-0.01372-6e-3 -0.02353-0.016-0.02745s-0.017 0-0.023 0.01372l-0.518 0.71373c-0.019 0.02745-0.05 0.04118-0.089 0.04118h-0.037c-0.041 0-0.07-0.01373-0.09-0.04118l-0.518-0.71373c-5e-3 -0.01372-0.011-0.01764-0.023-0.01372-0.01 0.00392-0.015 0.01373-0.015 0.02745v1.5882c0 0.04509-0.026 0.06862-0.074 0.06862h-0.187c-0.051 0-0.074-0.02353-0.074-0.06862v-2.0765c0-0.04509 0.025-0.06862 0.074-0.06862h0.194c0.035 0 0.065 0.01372 0.09 0.04117l0.615 0.85883s0.012 0.00784 0.023 0.00784c0.012 0 0.018-0.00196 0.024-0.00784l0.622-0.85883c0.026-0.02745 0.055-0.04117 0.09-0.04117z"/>
   <path d="m113.77 7.4765c-0.119-1.1157-0.417-1.9412-0.897-2.4765-0.481-0.5353-1.162-0.80392-2.05-0.80392-1.078 0-1.934 0.38627-2.569 1.1608-0.058 0.05882-0.089 0.0451-0.089-0.0451l0.089-0.71372c0.014-0.05883 4e-3 -0.11177-0.033-0.15687-0.037-0.04509-0.085-0.06666-0.144-0.06666h-1.638c-0.133 0-0.214 0.07451-0.244 0.22353l-1.856 15.071c-0.026 0.2157 0.126 0.3588 0.338 0.3177l1.353-0.2628c0.212-0.0412 0.407-0.251 0.434-0.4666l0.553-4.4608c0-0.0451 0.013-0.0706 0.044-0.0785 0.03-0.0078 0.053 0.0118 0.067 0.0549 0.206 0.3863 0.482 0.6726 0.831 0.8589 0.346 0.1862 0.794 0.2784 1.339 0.2784 0.959 0 1.761-0.2784 2.403-0.8373 0.642-0.5568 1.141-1.3941 1.495-2.5098 0.222-0.7137 0.399-1.5627 0.531-2.5431 0.059-0.68431 0.09-1.2059 0.09-1.5627 0-0.43137-0.016-0.75882-0.045-0.98235zm-7.575-2.8784-1.856 15.071c-0.026 0.2157 0.126 0.3588 0.338 0.3177l1.353-0.2628c0.212-0.0412 0.407-0.251 0.434-0.4666l0.553-4.4608m4.604-4.7314c-0.118 1.0863-0.332 1.949-0.642 2.5882-0.457 0.9373-1.099 1.4059-1.927 1.4059-0.428 0-0.761-0.1235-0.996-0.3686-0.236-0.2451-0.399-0.6059-0.487-1.0824-0.044-0.298-0.066-0.6098-0.066-0.9372 0-0.4314 0.037-0.9667 0.111-1.6059 0.119-1.0412 0.302-1.8745 0.553-2.5 0.428-1.0118 1.055-1.5176 1.882-1.5176 0.473 0 0.837 0.13138 1.096 0.3902 0.258 0.26079 0.432 0.64314 0.519 1.149 0.045 0.26863 0.066 0.56471 0.066 0.89216 0 0.43137-0.037 0.95882-0.111 1.5843z"/>
   <path d="m72.612 5.1667c-0.6422-0.64706-1.5316-0.97058-2.6682-0.97058s-2.0377 0.31568-2.8356 0.94901c-0.798 0.63334-1.3215 1.4686-1.5726 2.5098-0.1634 0.6549-0.2958 1.451-0.3989 2.3882-0.1032 0.8628-0.1557 1.5393-0.1557 2.0314 0 0.2686 0.0078 0.4608 0.0214 0.5804 0.0584 1.0118 0.3951 1.8078 1.0081 2.3882 0.6131 0.5804 1.4791 0.8706 2.6021 0.8706 1.1229 0 2.0376-0.3157 2.8356-0.949 1.2144-0.9588 1.5005-2.2451 1.5005-2.2451 0.0331-0.1196-0.0117-0.198-0.1304-0.198h-1.6504c-0.1167 0-0.2627 0.0745-0.3094 0.1941 0 0-0.1557 0.4314-0.6189 0.8451-0.3795 0.3372-0.8544 0.4961-1.4052 0.5019-0.5507-0.0039-0.9906-0.1745-1.3195-0.5117-0.3328-0.3432-0.4982-0.7883-0.4982-1.3392-0.0156-0.1942 0.0078-0.5569 0.0662-1.0942 0-0.0588 0.0292-0.0902 0.0895-0.0902h5.8911c0.148 0 0.2277-0.0745 0.2433-0.2235 0.1771-1.3078 0.2666-2.3274 0.2666-3.0568 0-1.0706-0.3211-1.9294-0.9633-2.5765zm-1.1852 4.051c0 0.05883-0.0292 0.0902-0.0895 0.0902h-3.9644c-0.0448 0-0.0662-0.02941-0.0662-0.0902 0.0895-0.58039 0.1615-1.0196 0.2218-1.3157 0.1324-0.56471 0.3951-1.0157 0.7863-1.349 0.3912-0.3353 0.868-0.50196 1.4285-0.50196s0.979 0.17451 1.2962 0.52353 0.4768 0.8 0.4768 1.349c-0.0292 0.62549-0.0584 1.0569-0.0895 1.2941z"/>
   <path d="m90.293 5.1667c-0.6423-0.64706-1.5317-0.97058-2.6683-0.97058s-2.0377 0.31568-2.8356 0.94901c-0.7979 0.63334-1.3215 1.4686-1.5725 2.5098-0.1635 0.6549-0.2958 1.451-0.399 2.3882-0.1031 0.8628-0.1557 1.5393-0.1557 2.0314 0 0.2686 0.0078 0.4608 0.0214 0.5804 0.0584 1.0118 0.3951 1.8078 1.0082 2.3882 0.613 0.5804 1.4791 0.8706 2.602 0.8706 1.123 0 2.0377-0.3157 2.8356-0.949 1.2145-0.9588 1.5006-2.2451 1.5006-2.2451 0.033-0.1196-0.0117-0.198-0.1304-0.198h-1.6504c-0.1168 0-0.2628 0.0745-0.3095 0.1941 0 0-0.1557 0.4314-0.6189 0.8451-0.3795 0.3372-0.8543 0.4961-1.4051 0.5019-0.5508-0.0039-0.9906-0.1745-1.3195-0.5117-0.3328-0.3432-0.4983-0.7883-0.4983-1.3392-0.0155-0.1942 0.0078-0.5569 0.0662-1.0942 0-0.0588 0.0292-0.0902 0.0895-0.0902h5.8912c0.1479 0 0.2277-0.0745 0.2433-0.2235 0.1771-1.3078 0.2666-2.3274 0.2666-3.0568 0-1.0706-0.3211-1.9294-0.9634-2.5765zm-1.1853 4.051c0 0.05883-0.0292 0.0902-0.0895 0.0902h-3.9644c-0.0448 0-0.0662-0.02941-0.0662-0.0902 0.0895-0.58039 0.1616-1.0196 0.2219-1.3157 0.1323-0.56471 0.3951-1.0157 0.7863-1.349 0.3911-0.3353 0.868-0.50196 1.4285-0.50196s0.9789 0.17451 1.2961 0.52353c0.3173 0.34902 0.4769 0.8 0.4769 1.349-0.0292 0.62549-0.0584 1.0569-0.0896 1.2941z"/>
   <path d="m122.49 5.1667c-0.642-0.64706-1.531-0.97058-2.668-0.97058-1.136 0-2.037 0.31568-2.835 0.94901-0.798 0.63334-1.322 1.4686-1.573 2.5098-0.163 0.6549-0.296 1.451-0.399 2.3882-0.103 0.8628-0.156 1.5393-0.156 2.0314 0 0.2686 8e-3 0.4608 0.022 0.5804 0.058 1.0118 0.395 1.8078 1.008 2.3882s1.479 0.8706 2.602 0.8706 2.038-0.3157 2.836-0.949c1.214-0.9588 1.5-2.2451 1.5-2.2451 0.033-0.1196-0.012-0.198-0.13-0.198h-1.651c-0.116 0-0.262 0.0745-0.309 0.1941 0 0-0.156 0.4314-0.619 0.8451-0.379 0.3372-0.854 0.4961-1.405 0.5019-0.551-0.0039-0.991-0.1745-1.32-0.5117-0.332-0.3432-0.498-0.7883-0.498-1.3392-0.015-0.1942 8e-3 -0.5569 0.066-1.0942 0-0.0588 0.029-0.0902 0.09-0.0902h5.891c0.148 0 0.228-0.0745 0.243-0.2235 0.177-1.3078 0.267-2.3274 0.267-3.0568 0-1.0706-0.321-1.9294-0.964-2.5765zm-1.185 4.051c0 0.05883-0.029 0.0902-0.089 0.0902h-3.965c-0.045 0-0.066-0.02941-0.066-0.0902 0.09-0.58039 0.162-1.0196 0.222-1.3157 0.132-0.56471 0.395-1.0157 0.786-1.349 0.391-0.3353 0.868-0.50196 1.429-0.50196 0.56 0 0.979 0.17451 1.296 0.52353s0.477 0.8 0.477 1.349c-0.029 0.62549-0.059 1.0569-0.09 1.2941z"/>
   <path d="m93.495 1.0961c0.0272-0.21569 0.2218-0.42549 0.434-0.46667l1.3526-0.26274c0.2121-0.041176 0.3639 0.10196 0.3386 0.31765l-1.8294 15.004c-0.0292 0.1491-0.1109 0.2236-0.2433 0.2236h-1.6173c-0.0739 0-0.1304-0.0216-0.1654-0.0667-0.037-0.0451-0.0486-0.0961-0.0331-0.1569l1.7633-14.59z"/>
  </g>
 </g>
</svg>
