<?xml version="1.0" encoding="UTF-8" standalone="no"?>
<!-- Created with Inkscape (http://www.inkscape.org/) -->

<svg
   width="512"
   height="512"
   viewBox="0 0 512 512"
   version="1.1"
   id="svg1"
   xml:space="preserve"
   inkscape:version="1.4 (unknown)"
   sodipodi:docname="icon.svg"
   xmlns:inkscape="http://www.inkscape.org/namespaces/inkscape"
   xmlns:sodipodi="http://sodipodi.sourceforge.net/DTD/sodipodi-0.dtd"
   xmlns="http://www.w3.org/2000/svg"
   xmlns:svg="http://www.w3.org/2000/svg"><sodipodi:namedview
     id="namedview1"
     pagecolor="#656565"
     bordercolor="#000000"
     borderopacity="0.25"
     inkscape:showpageshadow="2"
     inkscape:pageopacity="0.0"
     inkscape:pagecheckerboard="0"
     inkscape:deskcolor="#d1d1d1"
     inkscape:document-units="px"
     showgrid="false"
     showguides="false"
     inkscape:zoom="0.5"
     inkscape:cx="-392"
     inkscape:cy="474"
     inkscape:window-width="3440"
     inkscape:window-height="1371"
     inkscape:window-x="0"
     inkscape:window-y="0"
     inkscape:window-maximized="1"
     inkscape:current-layer="path46-3-7-9-1-3"
     inkscape:lockguides="true"><inkscape:grid
       id="grid1"
       units="px"
       originx="0"
       originy="0"
       spacingx="1"
       spacingy="1"
       empcolor="#0099e5"
       empopacity="0.30196078"
       color="#0099e5"
       opacity="0.14901961"
       empspacing="5"
       enabled="true"
       visible="false" /></sodipodi:namedview><defs
     id="defs1"><linearGradient
       id="linearGradient17"><stop
         style="stop-color:#ffffff;stop-opacity:1;"
         offset="0"
         id="stop40" /><stop
         style="stop-color:#d4adf0;stop-opacity:1;"
         offset="0.63070911"
         id="stop41" /><stop
         style="stop-color:#8e3dc7;stop-opacity:1;"
         offset="1"
         id="stop42" /></linearGradient><linearGradient
       id="linearGradient17-1"><stop
         style="stop-color:#ffffff;stop-opacity:0;"
         offset="0"
         id="stop17" /><stop
         style="stop-color:#8e3dc7;stop-opacity:1;"
         offset="1"
         id="stop18" /></linearGradient><inkscape:perspective
       sodipodi:type="inkscape:persp3d"
       inkscape:vp_x="-181.82724 : 263.34552 : 1"
       inkscape:vp_y="0 : 1000 : 0"
       inkscape:vp_z="808.17276 : 743.34552 : 1"
       inkscape:persp3d-origin="254.17276 : 167.01219 : 1"
       id="perspective9" /></defs><g
     inkscape:label="Layer 1"
     inkscape:groupmode="layer"
     id="layer1"><text
       xml:space="preserve"
       style="font-style:normal;font-variant:normal;font-weight:normal;font-stretch:normal;font-size:18.6667px;line-height:0.5;font-family:barlow;-inkscape-font-specification:barlow;text-align:start;letter-spacing:-1px;writing-mode:lr-tb;direction:ltr;text-anchor:start;opacity:1;fill:#3a8ee9;fill-opacity:1;stroke:none;stroke-width:4.939;stroke-linecap:butt;stroke-linejoin:miter;stroke-miterlimit:4;stroke-dasharray:none;stroke-dashoffset:0;stroke-opacity:1"
       x="3432.2964"
       y="-1021.0622"
       id="text30"><tspan
         sodipodi:role="line"
         id="tspan30"
         x="3432.2964"
         y="-1021.0622"
         style="font-style:normal;font-variant:normal;font-weight:600;font-stretch:normal;font-family:barlow;-inkscape-font-specification:'barlow Semi-Bold'">Aa</tspan></text><rect
       style="fill:#ffffff;fill-opacity:1"
       id="rect1-5-1-0-3-8-3-6-5"
       width="512"
       height="512"
       x="0"
       y="0"
       ry="80" /><path
       style="fill:#9edffa;fill-opacity:1;stroke:none;stroke-width:10;stroke-dasharray:none;stroke-opacity:1"
       d="M 411.7692,256 100,436 V 76 Z"
       id="path1-1-0-2-3-2-7"
       sodipodi:nodetypes="ccc" /><g
       id="path46-3-7-9-1-3"
       transform="matrix(1.2100053,0,0,1.2100053,-171.9443,-1039.3046)"><path
         id="path47-3-6"
         style="baseline-shift:baseline;display:inline;overflow:visible;vector-effect:none;fill:#8e3dc7;enable-background:accumulate;stop-color:#000000;stop-opacity:1"
         d="m 455.91406,1088.2813 c -4.74364,0.5772 -8.19044,2.2741 -12.88086,6.293 -3.73628,3.2013 -6.21523,6.76 -8.30078,9.6094 -2.08529,2.8489 -3.95953,5.1903 -5.17578,6.2324 -1.43379,1.2287 -1.25684,1.1953 -2.70898,1.1953 -1.46427,0 -1.29789,0.029 -2.73828,-1.2051 -1.22342,-1.0481 -3.10474,-3.4009 -5.19727,-6.2597 -2.09234,-2.8586 -4.57777,-6.4265 -8.32227,-9.6348 -3.84435,-3.2939 -9.34657,-6.0177 -15.75195,-6.0176 -6.40531,0 -11.90918,2.7234 -15.75391,6.0176 -3.74448,3.2083 -6.22993,6.7762 -8.32226,9.6348 -2.09254,2.8588 -3.97386,5.2115 -5.19727,6.2597 -1.44049,1.2343 -1.27419,1.2051 -2.73828,1.2051 -1.46426,0 -1.2979,0.029 -2.73828,-1.2051 -1.22341,-1.0481 -3.10474,-3.4009 -5.19727,-6.2597 -2.09233,-2.8586 -4.57776,-6.4265 -8.32226,-9.6348 -3.84438,-3.2939 -9.34663,-6.0176 -15.75195,-6.0176 -6.40532,0 -11.90757,2.7237 -15.75196,6.0176 -3.7445,3.2083 -6.22992,6.7762 -8.32226,9.6348 -2.09253,2.8588 -3.97386,5.2115 -5.19727,6.2597 -1.44049,1.2343 -1.27419,1.2051 -2.73828,1.2051 -1.46427,0 -1.2979,0.029 -2.73828,-1.2051 -1.22341,-1.0481 -3.10472,-3.4009 -5.19727,-6.2597 -2.09233,-2.8586 -4.57776,-6.4265 -8.32226,-9.6348 -3.84473,-3.2942 -9.34859,-6.0176 -15.75391,-6.0176 -6.40537,-1e-4 -11.90759,2.7237 -15.75195,6.0176 -0.54513,0.4671 -0.9329,0.8825 -1.25391,1.1875 l 14.06728,14.1566 c 1.44045,-1.2342 1.47439,-1.3617 2.93858,-1.3617 1.46418,0 1.30055,-0.028 2.74024,1.2051 1.22291,1.0479 3.10239,3.4004 5.19531,6.2598 2.09279,2.8592 4.58012,6.4266 8.32422,9.6348 3.84438,3.2938 9.34664,6.0175 15.75195,6.0175 6.40531,0 11.90757,-2.7236 15.75195,-6.0175 3.74446,-3.2084 6.22992,-6.7762 8.32227,-9.6348 2.09247,-2.8588 3.97358,-5.2113 5.19726,-6.2598 1.44045,-1.2342 1.27411,-1.2051 2.73829,-1.2051 1.46417,0 1.29783,-0.029 2.73828,1.2051 1.22368,1.0485 3.10478,3.401 5.19726,6.2598 2.09235,2.8586 4.57782,6.4264 8.32227,9.6348 3.84438,3.2938 9.34664,6.0175 15.75195,6.0175 6.40532,0 11.90759,-2.7236 15.75195,-6.0175 3.74411,-3.2082 6.23144,-6.7756 8.32422,-9.6348 2.09292,-2.8594 3.9724,-5.2119 5.19532,-6.2598 1.43968,-1.2336 1.27605,-1.2051 2.74023,-1.2051 1.46419,0 1.29783,-0.029 2.73828,1.2051 1.22368,1.0485 3.10477,3.401 5.19727,6.2598 2.09234,2.8586 4.5778,6.4264 8.32226,9.6348 3.84438,3.2938 9.34664,6.0175 15.75196,6.0175 6.39333,0 11.88611,-2.7185 15.72265,-6.0058 3.73629,-3.2013 6.21524,-6.76 8.30078,-9.6094 2.08562,-2.8494 3.564,-4.0671 5.17579,-6.2344 3.45555,-4.6466 9.02007,-7.6196 9.60724,-14.4735 0.41351,-4.9587 -6.19803,-7.438 -9.74006,-7.007 z"
         sodipodi:nodetypes="ssssssssssssssssssssssssssccscscsssssssssssssssssssass" /></g><path
       style="fill:#0067b9;fill-opacity:1;stroke-width:0.5"
       d="M 66.2507,255.9997 255.9999,66.2505 361.7494,172 H 328.2525 L 255.9989,99.7515 99.7504,256 255.9989,412.2485 328.2525,340 h 33.4957 L 256.0004,445.5 Z m 95.9993,-0.01 93.6815,-93.6291 72.0301,71.6397 h -33.7068 l -38.2567,-38.247 -60.2471,60.247 z M 256,268.0006 v -24 h 144.246 l -47.9921,-48 33.5715,0.072 71.9252,71.9328 z"
       id="path44-8"
       sodipodi:nodetypes="ccccccccccccccccccccccccc" /></g></svg>
