<?xml version="1.0" encoding="UTF-8" standalone="no"?>
<!-- Created with Inkscape (http://www.inkscape.org/) -->

<svg
   width="512"
   height="512"
   viewBox="0 0 512 512"
   version="1.1"
   id="svg1"
   xml:space="preserve"
   inkscape:version="1.4 (unknown)"
   sodipodi:docname="icon.svg"
   inkscape:export-filename="icon.png"
   inkscape:export-xdpi="192"
   inkscape:export-ydpi="192"
   xmlns:inkscape="http://www.inkscape.org/namespaces/inkscape"
   xmlns:sodipodi="http://sodipodi.sourceforge.net/DTD/sodipodi-0.dtd"
   xmlns="http://www.w3.org/2000/svg"
   xmlns:svg="http://www.w3.org/2000/svg"><sodipodi:namedview
     id="namedview1"
     pagecolor="#656565"
     bordercolor="#000000"
     borderopacity="0.25"
     inkscape:showpageshadow="2"
     inkscape:pageopacity="0.0"
     inkscape:pagecheckerboard="0"
     inkscape:deskcolor="#d1d1d1"
     inkscape:document-units="px"
     showgrid="false"
     showguides="false"
     inkscape:zoom="0.5"
     inkscape:cx="-160"
     inkscape:cy="262"
     inkscape:window-width="3440"
     inkscape:window-height="1371"
     inkscape:window-x="0"
     inkscape:window-y="0"
     inkscape:window-maximized="1"
     inkscape:current-layer="g2"
     inkscape:lockguides="true"><inkscape:grid
       id="grid1"
       units="px"
       originx="0"
       originy="0"
       spacingx="1"
       spacingy="1"
       empcolor="#0099e5"
       empopacity="0.30196078"
       color="#0099e5"
       opacity="0.14901961"
       empspacing="5"
       enabled="true"
       visible="false" /></sodipodi:namedview><defs
     id="defs1"><linearGradient
       id="linearGradient17"><stop
         style="stop-color:#ffffff;stop-opacity:1;"
         offset="0"
         id="stop40" /><stop
         style="stop-color:#d4adf0;stop-opacity:1;"
         offset="0.63070911"
         id="stop41" /><stop
         style="stop-color:#8e3dc7;stop-opacity:1;"
         offset="1"
         id="stop42" /></linearGradient><linearGradient
       id="linearGradient17-1"><stop
         style="stop-color:#ffffff;stop-opacity:0;"
         offset="0"
         id="stop17" /><stop
         style="stop-color:#8e3dc7;stop-opacity:1;"
         offset="1"
         id="stop18" /></linearGradient><inkscape:perspective
       sodipodi:type="inkscape:persp3d"
       inkscape:vp_x="-181.82724 : 263.34552 : 1"
       inkscape:vp_y="0 : 1000 : 0"
       inkscape:vp_z="808.17276 : 743.34552 : 1"
       inkscape:persp3d-origin="254.17276 : 167.01219 : 1"
       id="perspective9" /></defs><g
     inkscape:label="Layer 1"
     inkscape:groupmode="layer"
     id="layer1"><rect
       style="fill:#ffffff;fill-opacity:1"
       id="rect1-5-1-0-3-8-3-6-5"
       width="512"
       height="512"
       x="0"
       y="0"
       ry="80" /><g
       id="g2"
       transform="translate(-536.71569,-831.85145)"><path
         style="fill:#0a507a;fill-opacity:1;stroke-width:1.94793"
         d="m 784.91925,1254.4113 c -9.09609,-1.7126 -18.16032,-5.9802 -27.04737,-12.734 -8.22687,-6.2525 -39.54928,-20.719 -58.3232,-26.9371 -28.97984,-9.5984 -69.80199,-16.6556 -96.34552,-16.6556 h -9.81642 l -0.17727,-62.8204 c -0.0973,-34.5515 -0.29624,-81.3375 -0.44156,-103.9695 -0.28791,-44.84626 0.28694,-47.48182 10.35851,-47.48182 2.95167,0 6.34147,1.17463 7.53278,2.61023 1.5017,1.80906 2.32189,29.45349 2.67356,90.09149 l 0.50719,87.4814 8.76567,1.3659 c 40.88713,6.3708 51.75829,8.4358 66.22946,12.5802 29.99201,8.5893 54.11803,20.7618 84.73474,42.7524 9.09292,6.5307 10.52949,6.9452 21.63389,6.2409 11.07917,-0.703 13.01467,-1.5936 28.2449,-12.9968 32.87919,-24.6171 77.69902,-40.9046 129.79804,-47.1686 l 19.94692,-2.3981 0.50628,-89.7925 0.50628,-89.79252 6.45793,-0.61988 c 12.63575,-1.21273 12.04735,-6.52078 12.04735,108.6754 v 104.6567 l -21.91419,1.3301 c -49.93812,3.0309 -105.05353,20.0447 -141.36405,43.6382 -17.48821,11.3632 -29.90357,14.6946 -44.51392,11.9439 z m -10.92379,-56.2949 c -22.34605,-16.8211 -70.57103,-35.229 -115.50862,-44.0907 -14.91355,-2.941 -27.75952,-6.2838 -28.5467,-7.4282 -0.7871,-1.1446 -1.44458,-46.0212 -1.46092,-99.7258 -0.0254,-84.23252 0.36947,-97.97629 2.87787,-100.05783 6.50197,-5.39615 91.11674,17.08388 124.78442,33.15204 7.15088,3.41276 16.40822,9.28268 20.57172,13.04432 6.60363,5.9657 7.5702,7.92937 7.5702,15.37807 0,4.6964 -0.70635,8.5389 -1.56945,8.5389 -0.86335,0 -4.58871,-2.2623 -8.27868,-5.0274 -9.71296,-7.2784 -29.23115,-16.81489 -51.2324,-25.03179 -24.05532,-8.98397 -71.48438,-21.26 -73.67519,-19.06918 -0.90323,0.90346 -1.41344,38.31707 -1.13369,83.14167 l 0.50857,81.4992 23.82396,5.448 c 47.50752,10.8638 90.01575,27.6793 104.49721,41.337 6.13986,5.7905 7.05967,7.8337 7.05967,15.6807 0,4.9626 -0.65748,8.9627 -1.46092,8.8892 -0.80352,-0.075 -4.77578,-2.6285 -8.82705,-5.6782 z m 29.76717,-4.6752 c 0,-7.4799 0.95937,-9.4057 7.73407,-15.5264 14.83133,-13.3989 50.56191,-27.7982 95.50597,-38.488 13.392,-3.1853 25.88312,-6.2511 27.75798,-6.8129 3.17593,-0.9518 3.40883,-6.5935 3.40883,-82.5881 0,-44.8617 -0.69711,-81.99749 -1.54917,-82.52396 -2.35132,-1.4534 -37.64927,7.31718 -61.75838,15.34488 -24.32706,8.10044 -48.46983,19.57058 -59.37941,28.21108 -4.0758,3.2282 -8.38034,5.8694 -9.56528,5.8694 -1.2817,0 -2.15461,-3.8756 -2.15461,-9.5664 0,-8.3418 0.78645,-10.22818 6.14362,-14.7359 10.11497,-8.51127 32.10158,-18.54885 62.03376,-28.3204 29.53386,-9.64166 77.99481,-20.58491 82.87102,-18.71375 2.43394,0.93404 2.83341,15.16287 2.80791,100.00725 -0.0196,54.4051 -0.67373,99.7949 -1.46091,100.8663 -0.78718,1.0713 -13.70312,4.4426 -28.70215,7.4915 -45.76066,9.3019 -80.15888,21.9718 -105.63557,38.9088 -7.54136,5.0136 -14.6897,9.1156 -15.88477,9.1156 -1.26804,0 -2.17291,-3.5554 -2.17291,-8.539 z"
         id="path2"
         sodipodi:nodetypes="sssscssssscsssssscccsscsssssssssssssssscsssssssssssssssssscsssss" /><g
         id="path46-3-7-9-1-3-0"
         transform="matrix(1.2100053,0,0,1.2100053,987.73498,-131.18731)"><path
           id="path47-3-6-9-9"
           style="baseline-shift:baseline;display:inline;overflow:visible;vector-effect:none;fill:#8e3dc7;enable-background:accumulate;stop-color:#000000"
           d="m -60.075471,979.02499 c -4.74364,0.5772 -8.19044,2.2741 -12.88086,6.293 -3.73628,3.2013 -6.21523,6.76 -8.30078,9.6094 -2.08529,2.8489 -3.95953,5.19031 -5.17578,6.23241 -1.43379,1.2287 -1.25684,1.1953 -2.70898,1.1953 -1.46427,0 -1.29789,0.029 -2.73828,-1.2051 -1.22342,-1.0481 -3.104738,-3.40091 -5.197268,-6.25971 -2.09234,-2.8586 -4.577771,-6.4265 -8.322271,-9.6348 -3.84435,-3.2939 -9.34657,-6.0177 -15.75195,-6.0176 -6.40531,0 -11.90918,2.7234 -15.75391,6.0176 -3.74448,3.2083 -6.22993,6.7762 -8.32226,9.6348 -2.09254,2.8588 -3.97386,5.21151 -5.19727,6.25971 -1.44049,1.2343 -1.27419,1.2051 -2.73828,1.2051 -1.46426,0 -1.2979,0.029 -2.73828,-1.2051 -1.22341,-1.0481 -3.10474,-3.40091 -5.19727,-6.25971 -2.09233,-2.8586 -4.57776,-6.4265 -8.32226,-9.6348 -3.84438,-3.2939 -9.34663,-6.0176 -15.75195,-6.0176 -6.40532,0 -11.90757,2.7237 -15.75196,6.0176 -3.7445,3.2083 -6.22992,6.7762 -8.32226,9.6348 -2.09253,2.8588 -3.97386,5.21151 -5.19727,6.25971 -1.44049,1.2343 -1.27419,1.2051 -2.73828,1.2051 -1.46427,0 -1.2979,0.029 -2.73828,-1.2051 -1.22341,-1.0481 -3.10472,-3.40091 -5.19727,-6.25971 -2.09233,-2.8586 -4.57776,-6.4265 -8.32226,-9.6348 -3.84473,-3.2942 -9.34859,-6.0176 -15.75391,-6.0176 -6.40537,-10e-5 -11.90759,2.7237 -15.75195,6.0176 -0.54513,0.4671 -0.85046,0.7769 -1.25391,1.1875 -13.99555,14.24461 -0.17435,36.52501 14.06728,14.15661 0.5798,-0.91071 1.47439,-1.36171 2.93858,-1.36171 1.46418,0 1.30055,-0.028 2.74024,1.20511 1.22291,1.0479 3.10239,3.4004 5.19531,6.2598 2.09279,2.8592 4.58012,6.4266 8.32422,9.6348 3.84438,3.2938 9.34664,6.0175 15.75195,6.0175 6.40531,0 11.90757,-2.7236 15.75195,-6.0175 3.74446,-3.2084 6.22992,-6.7762 8.32227,-9.6348 2.09247,-2.8588 3.97358,-5.2113 5.19726,-6.2598 1.44045,-1.23421 1.27411,-1.20511 2.73829,-1.20511 1.46417,0 1.29783,-0.029 2.73828,1.20511 1.22368,1.0485 3.10478,3.401 5.19726,6.2598 2.09235,2.8586 4.57782,6.4264 8.32227,9.6348 3.84438,3.2938 9.34664,6.0175 15.75195,6.0175 6.40532,0 11.90759,-2.7236 15.75195,-6.0175 3.74411,-3.2082 6.23144,-6.7756 8.32422,-9.6348 2.09292,-2.8594 3.9724,-5.2119 5.19532,-6.2598 1.43968,-1.23361 1.27605,-1.20511 2.74023,-1.20511 1.46419,0 1.29783,-0.029 2.73828,1.20511 1.22368,1.0485 3.10477,3.401 5.19727,6.2598 2.09234,2.8586 4.5778,6.4264 8.32226,9.6348 3.84438,3.2938 9.346641,6.0175 15.751959,6.0175 6.39333,0 11.88611,-2.7185 15.72265,-6.0058 3.73629,-3.2013 6.21524,-6.76 8.30078,-9.6094 2.08562,-2.8494 3.564,-4.0671 5.17579,-6.2344 3.45555,-4.64661 9.02007,-7.61961 9.60724,-14.47351 0.41351,-4.9587 -6.19803,-7.438 -9.74006,-7.007 z"
           sodipodi:nodetypes="ssssssssssssssssssssssssssssscscsssssssssssssssssssass" /></g></g></g></svg>
