<svg width="32" height="32" version="1.1" viewBox="0 0 32 32" xmlns="http://www.w3.org/2000/svg">
 <g transform="matrix(.50794 0 0 .50794 43.292 12.009)">
  <path transform="matrix(3.7795 0 0 3.7795 128.82 -539.1)" d="m-55.531 153.05.04656-16.669 14.412 8.3747-7.2294 4.147z" fill="#0067b9"/>
  <path d="m-51.763 17.7h-15.75c-1.6406 0-3.0352-.57422-4.1836-1.7227-1.1484-1.1484-1.7227-2.543-1.7227-4.1836v-5.9062h5.9062v-27.562h29.531v21.774zm0 0 12.945-17.719c.39375 0 .7711.07383 1.132.22148.36094.14766.68907.36914.98438.66445l1.8211 1.8211c.2625.29531.46758.62344.61524.98437.14765.36094.22148.72188.22148 1.0828s-.06562.73008-.19687 1.1074c-.13125.37734-.34454.71367-.63985 1.009l-10.828 10.828z" fill="#ececec" stroke-width=".049219"/>
  <path d="m-51.763 17.7v-6.0539l10.877-10.828c.29531-.29531.62344-.50859.98438-.63984s.72187-.19687 1.0828-.19688c.39375 0 .77109.073827 1.132.22148.36094.14765.68907.36914.98438.66445l1.8211 1.8211c.2625.29531.46758.62344.61524.98437.14765.36094.22148.72187.22148 1.0828s-.06562.73006-.19687 1.1074c-.13125.37735-.34454.71368-.63985 1.009l-10.828 10.828zm14.766-12.945-1.8211-1.8211zm-11.812 9.9914h1.8703l5.9555-6.0047-.88594-.93516-.93516-.88594-6.0047 5.9555zm6.9398-6.9398-.93516-.88594 1.8211 1.8211z" fill="#803300" stroke-width=".049219"/>
  <path d="m-61.607-7.8933v-3.9375h17.719v3.9375zm0 5.9063v-3.9375h17.719v3.9375zm5.9062 15.75h-13.781zm0 3.9375h-11.812c-1.6406 0-3.0351-.57423-4.1836-1.7227s-1.7227-2.543-1.7227-4.1836v-5.9062h5.9062v-27.563h29.531v17.768c-.65625-.065627-1.3207-.041017-1.9934.07383-.67267.11484-1.3207.31992-1.9441.61523v-14.52h-21.656v23.625h11.812l-3.9375 3.9375h-13.781v1.9687c0 .55781.18867 1.0254.56602 1.4027.37734.37735.84491.56602 1.4027.56602h11.812z" stroke-width=".049219"/>
 </g>
</svg>
