<?xml version="1.0" encoding="UTF-8" standalone="no"?>
<!-- Created with Inkscape (http://www.inkscape.org/) -->

<svg
   width="96"
   height="48"
   viewBox="0 0 96 48"
   version="1.1"
   id="svg5"
   inkscape:version="1.2.2 (b0a8486541, 2022-12-01)"
   sodipodi:docname="icons.svg"
   xml:space="preserve"
   xmlns:inkscape="http://www.inkscape.org/namespaces/inkscape"
   xmlns:sodipodi="http://sodipodi.sourceforge.net/DTD/sodipodi-0.dtd"
   xmlns="http://www.w3.org/2000/svg"
   xmlns:svg="http://www.w3.org/2000/svg"
   xmlns:rdf="http://www.w3.org/1999/02/22-rdf-syntax-ns#"
   xmlns:cc="http://creativecommons.org/ns#"
   xmlns:dc="http://purl.org/dc/elements/1.1/"><metadata
     id="metadata182"><rdf:RDF><cc:Work
         rdf:about=""><dc:format>image/svg+xml</dc:format><dc:type
           rdf:resource="http://purl.org/dc/dcmitype/StillImage" /></cc:Work></rdf:RDF></metadata><sodipodi:namedview
     id="namedview7"
     pagecolor="#505050"
     bordercolor="#eeeeee"
     borderopacity="1"
     inkscape:pageshadow="0"
     inkscape:pageopacity="0"
     inkscape:pagecheckerboard="false"
     inkscape:document-units="mm"
     showgrid="false"
     units="px"
     width="432px"
     height="24px"
     inkscape:zoom="11.313708"
     inkscape:cx="83.306018"
     inkscape:cy="23.378718"
     inkscape:window-width="2560"
     inkscape:window-height="1014"
     inkscape:window-x="0"
     inkscape:window-y="0"
     inkscape:window-maximized="1"
     inkscape:current-layer="layer1"
     showguides="false"
     inkscape:showpageshadow="2"
     inkscape:deskcolor="#505050"><inkscape:grid
       type="xygrid"
       id="grid9"
       spacingx="6.35"
       spacingy="6.35"
       enabled="true"
       originx="0"
       originy="0" /><inkscape:grid
       type="xygrid"
       id="grid1182"
       enabled="true"
       spacingx="0.26458334"
       spacingy="0.26458334"
       snapvisiblegridlinesonly="true"
       originx="0"
       originy="0" /></sodipodi:namedview><defs
     id="defs2"><marker
       style="overflow:visible"
       id="TriangleInL"
       refX="0"
       refY="0"
       orient="auto"
       inkscape:stockid="TriangleInL"
       inkscape:isstock="true"><path
         transform="scale(-0.8)"
         style="fill:context-stroke;fill-rule:evenodd;stroke:context-stroke;stroke-width:1pt"
         d="M 5.77,0 -2.88,5 V -5 Z"
         id="path2167" /></marker><marker
       style="overflow:visible"
       id="Arrow2Lstart"
       refX="0"
       refY="0"
       orient="auto"
       inkscape:stockid="Arrow2Lstart"
       inkscape:isstock="true"><path
         transform="matrix(1.1,0,0,1.1,1.1,0)"
         d="M 8.7185878,4.0337352 -2.2072895,0.01601326 8.7185884,-4.0017078 c -1.7454984,2.3720609 -1.7354408,5.6174519 -6e-7,8.035443 z"
         style="fill:context-stroke;fill-rule:evenodd;stroke-width:0.625;stroke-linejoin:round"
         id="path2052" /></marker><marker
       style="overflow:visible"
       id="Arrow1Lstart"
       refX="0"
       refY="0"
       orient="auto"
       inkscape:stockid="Arrow1Lstart"
       inkscape:isstock="true"><path
         transform="matrix(0.8,0,0,0.8,10,0)"
         style="fill:context-stroke;fill-rule:evenodd;stroke:context-stroke;stroke-width:1pt"
         d="M 0,0 5,-5 -12.5,0 5,5 Z"
         id="path2034" /></marker><linearGradient
       id="a"
       gradientUnits="userSpaceOnUse"
       x1="114.114"
       x2="32.006001"
       y1="112.635"
       y2="30.527"
       gradientTransform="matrix(0.05358695,0,0,0.05358695,50.54536,-0.25469858)"><stop
         offset="0"
         stop-color="#7b49ad"
         id="stop2" /><stop
         offset="1"
         stop-color="#6aa8fb"
         id="stop4" /></linearGradient><marker
       style="overflow:visible"
       id="TriangleInL-5"
       refX="0"
       refY="0"
       orient="auto"
       inkscape:stockid="TriangleInL"
       inkscape:isstock="true"><path
         transform="scale(-0.8)"
         style="fill:context-stroke;fill-rule:evenodd;stroke:context-stroke;stroke-width:1pt"
         d="M 5.77,0 -2.88,5 V -5 Z"
         id="path2167-3" /></marker></defs><g
     inkscape:label="Layer 1"
     inkscape:groupmode="layer"
     id="layer1"><g
       id="path676-3-3"
       transform="translate(-2.9109232)" /><g
       id="path32350-8" /><g
       id="g11409"
       transform="matrix(0.26458333,0,0,0.26458333,85.873261,-0.58297085)"
       style="fill:#ffffff;fill-opacity:1" /><path
       d="m 36.05769,19.95191 q -3.33335,0 -5.666675,-2.333325 -2.33335,-2.33335 -2.33335,-5.666675 0,-3.038475 1.980775,-5.26925 1.980775,-2.23075 4.903875,-2.6346 0.08075,0 0.15865,0.0058 0.07788,0.0058 0.152875,0.0173 -0.505775,0.70578 -0.80095,1.570205 -0.2952,0.864425 -0.2952,1.810575 0,2.666675 1.866675,4.533325 1.86665,1.866675 4.533325,1.866675 0.951925,0 1.81345,-0.2952 0.86155,-0.2952 1.548075,-0.800975 0.01155,0.075 0.01732,0.1529 0.0058,0.07787 0.0058,0.15865 -0.384625,2.923075 -2.6154,4.90385 -2.230795,1.980775 -5.269245,1.980775 z m 0,-1 q 2.2,0 3.95,-1.2125 1.75,-1.2125 2.55,-3.1625 -0.5,0.125 -1,0.2 -0.5,0.075 -1,0.075 -3.075,0 -5.2375,-2.1625 -2.1625,-2.1625 -2.1625,-5.2375 0,-0.5 0.075,-1 0.075,-0.5 0.2,-1 -1.95,0.8 -3.1625,2.55 -1.2125,1.75 -1.2125,3.95 0,2.9 2.05,4.95 2.05,2.05 4.95,2.05 z m -0.25,-6.75 z"
       id="path1290"
       style="stroke-width:0.025" /><path
       d="m 35.5,27.884624 v -2.384625 h 1 v 2.384625 z m 0,18.615375 v -2.384625 h 1 v 2.384625 z m 8.615375,-10 v -1 H 46.5 v 1 z m -18.615375,0 v -1 h 2.384625 v 1 z m 16.815375,-6.1077 -0.707675,-0.707675 1.4423,-1.45385 0.719225,0.719225 z M 28.95,43.769224 l -0.719225,-0.719225 1.45385,-1.4423 0.707675,0.707675 z m 14.1,0 -1.4423,-1.45385 0.707675,-0.707675 1.45385,1.4423 z m -13.365375,-13.376925 -1.45385,-1.4423 0.719225,-0.719225 1.4423,1.45385 z m 6.3199,10.6077 q -2.08145,0 -3.543,-1.457 Q 31,38.085974 31,36.004524 q 0,-2.08145 1.457,-3.543 1.457025,-1.461525 3.538475,-1.461525 2.08145,0 3.543,1.457 Q 41,33.914024 41,35.995474 q 0,2.08145 -1.457,3.543 -1.457025,1.461525 -3.538475,1.461525 z m -0.0045,-1 q 1.675,0 2.8375,-1.1625 1.1625,-1.1625 1.1625,-2.8375 0,-1.675 -1.1625,-2.8375 -1.1625,-1.1625 -2.8375,-1.1625 -1.675,0 -2.8375,1.1625 -1.1625,1.1625 -1.1625,2.8375 0,1.675 1.1625,2.8375 1.1625,1.1625 2.8375,1.1625 z m 0,-4 z"
       id="path1299"
       style="stroke-width:0.025" /><path
       d="m 4,17.269225 v -1 h 16 v 1 z M 4,12.5 v -1 h 16 v 1 z M 4,7.730775 v -1 h 16 v 1 z"
       id="path1308"
       style="stroke-width:0.025" /><path
       d="m 68,31 v 1 H 56.576929 V 31 Z M 52.7077,31.90385 56.8423,36 52.7077,40.076925 52,39.369225 55.42693,36 52,32.611525 Z M 68,35.5 v 1 h -8.57692 v -1 z m 0,4.5 v 1 H 56.576929 v -1 z"
       id="path1281-6"
       style="stroke-width:0.025" /><g
       id="g2400"
       transform="translate(0,1.0127906)"><path
         d="m 52.000001,16.256437 v -1 h 16 v 1 z m 0,-9.5384502 v -1 h 16 v 1 z"
         id="path1308-9"
         style="stroke-width:0.025"
         sodipodi:nodetypes="cccccccccc" /><circle
         style="fill:#000000;fill-opacity:1;stroke:none;stroke-linecap:round;stroke-linejoin:round"
         id="path1543"
         cx="53.975002"
         cy="9.3974705"
         r="1.0583334" /><ellipse
         style="fill:#000000;fill-opacity:1;stroke:#000000;stroke-width:0.5;stroke-linecap:round;stroke-linejoin:round;stroke-dasharray:none;stroke-opacity:1"
         id="path1543-2"
         cx="57.679169"
         cy="12.576954"
         rx="0.79374814"
         ry="0.79375058" /><path
         d="M 56.091668,9.8974703 V 8.8974698 h 11.90625 v 1.0000005 z"
         style="stroke-width:0.025"
         id="path2332" /><path
         d="m 59.531252,13.076954 v -1 h 8.466666 v 1 z"
         style="stroke-width:0.025"
         id="path2375" /></g><path
       d="m 6.4,42.307701 -0.7077,-0.7077 5.6,-5.6 -5.6,-5.6 0.7077,-0.7077 5.6,5.6 5.6,-5.6 0.7077,0.7077 -5.6,5.6 5.6,5.6 -0.7077,0.7077 -5.6,-5.6 z"
       id="path2520"
       style="stroke-width:0.025" /><path
       d="m 83.499998,15.384628 h 1.01923 v -4.91155 l 2.1,2.1 0.68847,-0.68845 -3.28847,-3.2884755 -3.3077,3.2884755 0.68847,0.68845 2.1,-2.1 z m 0.50335,5.615375 q -1.86682,0 -3.51025,-0.708475 -1.64342,-0.7085 -2.85912,-1.92305 -1.21568,-1.21455 -1.92483,-2.856425 -0.70915,-1.6419 -0.70915,-3.5087 0,-1.866825 0.70848,-3.5102505 0.7085,-1.643425 1.92305,-2.859125 1.21455,-1.215675 2.85642,-1.924825 1.6419,-0.70915 3.5087,-0.70915 1.86683,0 3.51025,0.708475 1.64343,0.7085 2.85913,1.92305 1.21567,1.21455 1.92482,2.856425 0.70915,1.6419005 0.70915,3.5087005 0,1.866825 -0.70847,3.51025 -0.7085,1.643425 -1.92305,2.859125 -1.21455,1.215675 -2.85643,1.924825 -1.6419,0.70915 -3.5087,0.70915 z m -0.003,-1 q 3.35,0 5.675,-2.325 2.325,-2.325 2.325,-5.675 0,-3.3500005 -2.325,-5.6750005 -2.325,-2.325 -5.675,-2.325 -3.35,0 -5.675,2.325 -2.325,2.325 -2.325,5.6750005 0,3.35 2.325,5.675 2.325,2.325 5.675,2.325 z m 0,-8 z"
       id="path2609"
       style="stroke-width:0.025" /><rect
       style="fill:#000000;fill-opacity:1;stroke:#000000;stroke-width:0.489796;stroke-linecap:round;stroke-linejoin:round;stroke-dasharray:none;stroke-opacity:1"
       id="rect2618"
       width="23.510204"
       height="23.510204"
       x="114.18793"
       y="13.744897" /></g></svg>
